<svg width="160" height="51" viewBox="0 0 160 51" fill="none" xmlns="http://www.w3.org/2000/svg">
<path d="M15.9177 39.188L14.8237 41.372C14.4508 39.7828 9.74675 39.4349 9.86806 40.9568C9.94669 41.9512 13.1321 41.7963 14.1026 42.0948C15.073 42.3934 15.8997 43.2621 15.9334 44.3148C16.03 47.2262 12.3167 47.5248 10.1915 47.013C9.38508 46.8177 8.64601 46.1959 7.84179 46.4181L8.76731 44.2363C9.37609 45.417 11.3754 45.9018 12.5975 45.7066C13.2354 45.6055 14.617 44.8266 13.9049 44.1443C12.8446 43.1274 7.66657 44.5483 8.07766 40.867C8.36296 38.3035 11.6944 38.1711 13.6398 38.6919C14.4418 38.9074 15.0932 39.5494 15.9199 39.188H15.9177Z" fill="#2B50D2"/>
<path d="M34.9381 47.0915C34.8146 46.5887 35.2414 46.9165 35.2886 46.5169C35.4189 45.426 35.4234 42.0275 35.2841 40.9433C35.2369 40.5774 35.1089 40.4764 34.9381 40.1958H40.9136C40.963 40.1958 41.6662 40.6111 41.7583 40.6964C42.5086 41.3967 42.3266 42.876 41.3382 43.307C42.5602 43.8592 42.9286 45.4731 41.9267 46.4226C41.7291 46.6089 40.6216 47.0915 40.4082 47.0915H34.9381ZM36.9577 42.7189H40.0712C40.1948 42.7189 40.5879 42.1869 40.5003 41.9714L40.0712 41.3743H36.9577V42.7189ZM36.9577 45.747H40.0712C40.188 45.747 40.7541 45.3092 40.808 45.1252C41.2214 43.6931 37.9214 43.7829 37.1149 43.9714L36.9577 45.747Z" fill="#2B50D2"/>
<path d="M63.8878 47.0915L64.7099 45.8098C65.3659 43.7873 66.9249 41.7088 67.5562 39.7312C67.7628 39.0802 67.5764 39.1431 67.4236 38.5168C68.2795 38.7906 69.4319 38.7906 70.2811 38.5168L70.0115 39.3586C71.4627 41.8771 72.2714 44.8693 74.1539 47.096H70.955C70.7775 46.6561 71.2605 46.8244 71.2987 46.6516C71.4425 46.0006 70.8741 45.509 70.7865 44.9097H66.9991L66.2443 46.3598L66.579 47.096H63.8855L63.8878 47.0915ZM70.1171 43.729L68.9377 40.8692C68.6659 40.6672 67.6056 43.5 67.4259 43.729H70.1193H70.1171Z" fill="#2B50D2"/>
<path d="M49.4972 40.1958C50.8316 40.4338 51.3954 42.3777 50.5171 43.4013L49.0771 44.3126L51.2629 47.0915H48.4009C49.2636 46.8199 47.4282 44.4338 47.2216 44.3171C46.806 44.0881 46.022 44.2991 45.539 44.2318V46.7548H45.8737V47.0915H43.5172C43.6363 46.6493 43.8092 46.5281 43.8654 46.0096C43.98 44.9501 43.9979 41.9781 43.8654 40.9433C43.8182 40.5774 43.6902 40.4764 43.5195 40.1958C45.2986 40.4181 47.8101 39.895 49.4949 40.1958H49.4972ZM48.657 41.3743C47.7764 41.2104 46.478 41.4933 45.5435 41.3743V42.8872H48.8255C49.1467 42.8872 49.5444 41.5382 48.657 41.3743Z" fill="#2B50D2"/>
<path d="M16.9286 47.0915C16.7758 46.6314 17.2341 46.7818 17.3509 46.5955C17.5396 46.2902 17.4992 40.8737 17.27 40.4764C17.1869 40.3328 16.9398 40.4203 16.9308 40.2811C17.1285 39.8075 18.9414 40.1105 19.4535 40.0297C18.9616 40.9029 19.1323 41.7469 19.1188 42.7189H22.8209V40.3642C22.4682 40.4629 22.3492 40.2228 22.6502 40.1083C23.2882 39.8659 24.3081 40.1128 25.0089 40.0275C25.0584 40.3799 25.0202 40.4023 24.6742 40.3619V46.7526H25.0089V47.0893H22.484V46.7526H22.8209V44.0612H19.1188V46.4989C19.1188 46.573 19.5861 46.7975 19.4558 47.0871H16.9308L16.9286 47.0915Z" fill="#2B50D2"/>
<path d="M28.5426 40.1958C28.5852 40.4674 28.255 40.3058 28.1472 40.5662C27.9091 41.1453 27.9697 44.3553 28.2101 44.986C28.7155 46.3239 31.564 46.1667 31.8718 44.7862C32.0043 44.1914 32.0021 41.5988 31.9167 40.9456C31.8695 40.5797 31.7437 40.4809 31.5707 40.2003H33.7588C32.7703 41.7312 34.2642 45.4058 32.64 46.564C31.3933 47.4529 27.8012 47.5248 26.8577 46.169C26.6758 45.9086 26.3545 45.078 26.3545 44.8221V40.3642H26.0176V40.1958H28.5426Z" fill="#2B50D2"/>
<path d="M81.8142 40.0275C81.7131 40.0522 81.5783 40.3776 81.3941 40.3642V38.1778C81.6143 38.2048 81.7154 38.519 81.8996 38.5954C82.3039 38.7615 88.9983 38.8019 89.3105 38.5998C89.4273 38.5258 89.7149 37.5157 89.807 38.5954C89.8564 39.1722 89.771 39.7828 89.807 40.3642C89.5059 40.4899 89.2925 40.0297 89.2184 40.0297H86.4418V46.5057C86.4418 46.5797 86.9091 46.8042 86.7788 47.0938H84.2538V46.7571H84.5908V40.0297C83.8023 40.1532 82.5241 39.8591 81.8142 40.0297V40.0275Z" fill="#2B50D2"/>
<path d="M57.4922 40.1958C57.2653 40.564 57.1126 40.5684 57.2249 41.0353C57.3102 41.39 59.9116 46.3351 60.1722 46.6493C60.3788 46.8963 60.8124 46.5483 60.6889 47.0915H57.8269V46.7571C58.5929 46.7705 57.8921 45.8772 57.8269 45.4103H54.5449C54.3247 45.4103 53.9586 46.4294 54.1675 46.7212C54.2304 46.8087 54.5988 46.6404 54.4595 47.0915H51.9345L55.0638 41.0353C55.266 40.6627 54.9425 40.4876 54.7965 40.1958H57.4922ZM57.1552 44.4001L56.0635 42.2161C55.8703 42.5146 54.974 44.243 55.1379 44.4001H57.1552Z" fill="#2B50D2"/>
<path d="M94.5222 40.1958C94.3021 40.5393 94.037 40.7637 94.2571 41.2104C95.3534 42.8176 96.0296 44.8715 97.0696 46.4877C97.2583 46.7795 97.6672 46.6291 97.5526 47.0915H94.8592C94.8569 46.5057 95.4253 46.9501 95.1198 46.0747C94.9176 45.4933 94.6525 45.4529 94.1134 45.399C92.7138 45.2599 90.3259 45.1252 91.3256 47.0915H88.9691L92.1298 40.6403L91.831 40.1958H94.5245H94.5222ZM94.0168 44.4001C94.2189 44.2049 93.2238 42.5617 93.0935 42.2161L91.9995 44.4001H94.0168Z" fill="#2B50D2"/>
<path d="M108.07 40.1958C108.21 40.1554 108.428 39.7065 108.657 39.6908V41.7088C108.484 41.7267 108.308 41.372 108.237 41.372H103.944V42.885H106.72C106.792 42.885 106.965 42.5303 107.14 42.5483V44.5663C106.934 44.564 106.639 44.0612 106.554 44.0612H103.946V46.7526H104.281V47.0893H101.924C102.043 46.6471 102.216 46.5259 102.272 46.0074C102.387 44.9479 102.405 41.9759 102.272 40.9411C102.225 40.5752 102.097 40.4742 101.926 40.1936H108.07V40.1958Z" fill="#2B50D2"/>
<path d="M77.0181 40.1958C77.0361 40.3709 76.6811 40.546 76.6811 40.6156V45.7447H80.8887C80.8482 45.3968 80.8707 45.3586 81.2234 45.4103V47.4282C81.0482 47.4462 80.8752 47.0915 80.8033 47.0915H74.6593C74.5358 46.5887 74.9626 46.9165 75.0098 46.5169C75.1401 45.426 75.1446 42.0253 75.0053 40.9433C74.9581 40.5774 74.8301 40.4764 74.6593 40.1958H77.0181Z" fill="#2B50D2"/>
<path d="M100.581 40.1958C100.41 40.4764 100.282 40.5774 100.235 40.9433C100.102 41.9781 100.118 44.9501 100.235 46.0096C100.291 46.5281 100.464 46.6493 100.583 47.0915H98.2266C98.103 46.5887 98.5298 46.9165 98.577 46.5169C98.7073 45.426 98.7118 42.0253 98.5725 40.9433C98.5253 40.5774 98.3973 40.4764 98.2266 40.1958H100.583H100.581Z" fill="#2B50D2"/>
<path d="M140.774 50.3935C134.389 47.7941 129.569 42.3732 126.761 36.1733C123.694 29.4078 126.228 23.5177 130.481 18.0878C132.655 15.3111 136.492 12.0473 137.337 8.59495C138.08 5.55563 136.726 2.81261 135.778 0C138.011 1.40069 140.023 3.53091 141.475 5.73072C144.539 10.3728 145.57 15.3919 142.11 20.1776C138.136 25.6771 131.759 25.2416 131.083 33.675C130.472 41.289 134.724 46.5102 140.774 50.3935Z" fill="#2B50D2"/>
<path d="M156.526 19.3718L155.207 21.9105C153.219 27.2327 158.303 31.235 159.599 36.2025C162.124 45.8772 152.217 50.3935 144.26 50.9996C147.311 48.0141 151.242 45.0219 150.609 40.1936C150.357 38.2721 148.614 37.0779 147.717 35.5156C143.952 28.9499 149.852 20.8488 156.526 19.374V19.3718Z" fill="#2B50D2"/>
<path d="M150.139 38.8064C151.015 39.6593 152.019 40.9141 152.664 42.6201C153.102 43.7806 153.594 45.0825 153.131 46.5618C152.79 47.6527 152.08 48.3598 151.757 48.6763C151.417 49.0085 150.788 49.5427 149.414 50.0837C148.405 50.481 146.655 51.0175 144.26 50.9996C144.694 50.591 145.291 50.0029 145.968 49.2599C148.571 46.4002 150.73 44.0747 150.676 41.17C150.667 40.6246 150.573 39.803 150.144 38.8064H150.139Z" fill="#2B50D2"/>
<path d="M133.754 27.2192C132.999 27.5425 130.063 28.9072 128.681 32.1957C127.693 34.5504 128.016 36.6649 128.151 37.4618C128.612 40.2115 130.128 42.0589 131.296 43.4821C132.172 44.5483 132.956 45.2352 133.913 46.0769C134.845 46.8963 136.198 48.0725 138.204 49.1858C139.235 49.756 140.136 50.1443 140.776 50.3935C139.7 49.7425 138.262 48.7526 136.768 47.3183C135.789 46.3755 134.293 44.9164 133.055 42.647C132.361 41.3743 131.006 38.8198 131.033 35.3271C131.062 31.2911 132.918 28.3797 133.756 27.2192H133.754Z" fill="#2B50D2"/>
<path d="M34.5765 11.2033V25.4392H39.4826V11.2033H42.6478L42.4906 20.5345L44.4629 18.0002C46.6083 16.0922 50.6698 15.7106 52.3681 18.3347C53.7137 20.4133 53.4554 23.0822 53.2532 25.4392H58.0021V11.2033H61.1673V27.9712H31.4067V11.2033H34.5765ZM49.9307 25.4392C50.1644 23.933 50.544 19.5558 48.5492 19.1495C45.211 18.4671 43.1151 22.7478 42.6501 25.4392H49.9307Z" fill="#2B50D2"/>
<path d="M97.2269 25.4392H98.8039C99.2127 25.4392 99.9922 24.4403 99.9922 24.0946V18.3998L100.23 18.1619H103.317V23.9352C103.317 25.4437 105.283 26.1956 106.24 25.2731C106.413 25.107 106.799 23.9801 106.799 23.7759V17.2124H109.807C109.982 19.181 109.571 21.5424 109.807 23.4594C110.074 25.621 111.469 25.5312 113.291 25.4369L113.455 21.713L112.804 16.3594L115.821 15.787C116.8 19.7489 116.497 23.9262 116.297 27.9667H110.202C109.683 27.9667 108.111 27.0598 108.061 26.3842C106.963 27.7804 105.608 28.492 103.782 28.2114C102.816 28.0632 101.376 27.4639 101.257 26.3842C100.623 27.1294 100.01 27.8141 98.9679 27.9689H97.1797" fill="#2B50D2"/>
<path d="M97.1775 27.9712L84.4111 27.96C84.1056 28.7995 84.1887 29.6659 83.9573 30.5324C83.0542 33.8994 79.3791 34.3978 76.4228 33.8029L76.5643 31.2911C77.7302 31.4976 79.442 31.8972 80.3653 30.8983C80.4955 30.7591 80.9965 29.7445 80.9965 29.63V16.9767L81.2346 16.7387H84.0831L84.3212 16.9767V25.4392H92.0781V16.7387H95.2433V25.4392H97.2291" fill="#2B50D2"/>
<path d="M9.24805 25.4392C7.52504 23.3898 8.181 19.7219 10.1152 18.0025C12.7165 15.6904 17.8923 15.8453 19.4064 19.3224C20.2308 21.2124 20.1185 24.0789 18.5864 25.5963L24.6023 25.4392V16.7387H27.5317L27.7698 16.9767V27.7333L27.5317 27.9712H6.79496C5.25166 27.9712 2.53574 26.8488 1.49565 25.6749C-0.0813397 23.8903 -0.384607 19.8252 0.460048 17.6837C0.812736 16.7903 3.14003 16.8465 4.02512 16.741C3.00075 19.0508 2.55821 23.1294 4.98209 24.7209C5.27188 24.9117 6.66691 25.4392 6.95445 25.4392H9.25029H9.24805ZM13.7993 18.9902C10.4813 19.4593 10.4184 26.1014 14.7001 25.4279C17.4857 24.988 17.589 18.4559 13.7993 18.9902Z" fill="#2B50D2"/>
<path d="M22.5469 14.8397V12.9407L23.6544 13.0978C22.7311 10.0338 25.8491 9.16286 28.246 9.61854L28.0102 11.3672L27.8574 11.4794C27.1722 11.1651 25.447 11.2841 25.7368 12.3526C26.0064 13.3447 27.8282 12.7521 28.574 13.0103L28.7223 14.8397H22.5469Z" fill="#2B50D2"/>
<path d="M13.961 11.3896C15.8503 11.1494 16.486 14.2336 14.6776 14.6489C12.0179 15.2595 11.7888 11.6657 13.961 11.3896Z" fill="#2B50D2"/>
<path d="M91.5592 29.9016C93.8842 29.4572 94.2729 32.9342 92.1388 33.1856C89.8991 33.4505 89.6991 30.2585 91.5592 29.9016Z" fill="#2B50D2"/>
<path d="M111.332 12.2067C112.711 13.5961 110.681 16.0159 109.09 14.6848C107.372 13.2482 109.753 10.6129 111.332 12.2067Z" fill="#2B50D2"/>
<path d="M107.376 12.2067C108.843 13.7039 106.588 16.09 105.11 14.6287C103.555 13.0911 105.844 10.6466 107.376 12.2067Z" fill="#2B50D2"/>
<path d="M109.279 9.03716C110.537 10.4109 108.695 12.5726 107.188 11.3649C105.491 10.0046 107.927 7.56015 109.279 9.03716Z" fill="#2B50D2"/>
<path d="M67.2956 11.2033H64.0854V27.9712H67.2956V11.2033Z" fill="#2B50D2"/>
<path d="M77.4224 11.2033H74.2123V27.9712H77.4224V11.2033Z" fill="#2B50D2"/>
</svg>
